<?xml version="1.0" encoding="UTF-8"?>
<svg width="169px" height="51px" viewBox="0 0 169 51" version="1.1" xmlns="http://www.w3.org/2000/svg" xmlns:xlink="http://www.w3.org/1999/xlink">
    <title>8587CB7C-E5D6-4FD1-A3A7-82D1AB2E48FF</title>
    <g id="Page-1" stroke="none" stroke-width="1" fill="none" fill-rule="evenodd">
        <g id="Login-Screen" transform="translate(-100.000000, -104.000000)" fill-rule="nonzero">
            <g id="Logo" transform="translate(100.000000, 104.000000)">
                <path d="M58.3864901,2.38334037 L58.3864901,5.5188978 L61.1535501,5.5188978 C61.7032649,5.5188978 62.1155447,5.45555384 62.3904021,5.32886402 C62.8766882,5.10715683 63.1198277,4.66902777 63.1198277,4.01446368 C63.1198277,3.30711217 62.8846167,2.83203246 62.4141877,2.5892103 C62.1499018,2.451963 61.7534788,2.38334037 61.2249069,2.38334037 L58.3864901,2.38334037 Z M61.7323334,0.356313345 C62.5516198,0.372149572 63.1819323,0.472444178 63.6232899,0.657200169 C64.0646474,0.84195616 64.4386064,1.11380733 64.7451781,1.47276182 C64.9988926,1.76837141 65.1997469,2.09564854 65.347747,2.45460304 C65.4957471,2.81355754 65.5697461,3.22265395 65.5697461,3.68190456 C65.5697461,4.23617253 65.4296766,4.78119453 65.1495335,5.31698691 C64.8693904,5.85277928 64.406897,6.23152338 63.7620393,6.45323057 C64.3011826,6.66965902 64.6830701,6.97714117 64.9077131,7.37568623 C65.1323562,7.7742313 65.244676,8.38259726 65.244676,9.20080236 L65.244676,9.98469172 C65.244676,10.5178447 65.2658186,10.8794332 65.3081043,11.0694679 C65.3715329,11.3703562 65.5195309,11.5920601 65.7521025,11.7345861 L65.7521025,12.0275549 L63.0643279,12.0275549 C62.9903278,11.7688965 62.9374714,11.5603893 62.9057571,11.402027 C62.8423285,11.074745 62.8079718,10.7395499 62.8026861,10.3964316 L62.786829,9.31165541 C62.7762576,8.5673527 62.6401524,8.07115834 62.3785093,7.82305743 C62.1168662,7.57495653 61.6266232,7.45090794 60.9077654,7.45090794 L58.3864901,7.45090794 L58.3864901,12.0275549 L56,12.0275549 L56,0.356313345 L61.7323334,0.356313345 Z M72.4342749,10.2855785 C73.4015614,10.2855785 74.1693006,9.92926877 74.7375153,9.21663851 C75.3057301,8.50400826 75.5898332,7.49050488 75.5898332,6.17609797 C75.5898332,4.86696981 75.3057301,3.85478609 74.7375153,3.13951647 C74.1693006,2.42424685 73.4015614,2.0666174 72.4342749,2.0666174 C71.4669883,2.0666174 70.695285,2.42292718 70.1191416,3.13555743 C69.5429983,3.84818768 69.2549309,4.86169106 69.2549309,6.17609797 C69.2549309,7.49050488 69.5429983,8.50400826 70.1191416,9.21663851 C70.695285,9.92926877 71.4669883,10.2855785 72.4342749,10.2855785 Z M78.0318231,6.17609797 C78.0318231,8.27175879 77.4424743,9.87647247 76.263759,10.9902872 C75.381044,11.8982309 74.104562,12.3521959 72.4342749,12.3521959 C70.7639877,12.3521959 69.4875058,11.8982309 68.6047907,10.9902872 C67.4207897,9.87647247 66.8287981,8.27175879 66.8287981,6.17609797 C66.8287981,4.03820722 67.4207897,2.43349353 68.6047907,1.36190878 C69.4875058,0.453965055 70.7639877,0 72.4342749,0 C74.104562,0 75.381044,0.453965055 76.263759,1.36190878 C77.4424743,2.43349353 78.0318231,4.03820722 78.0318231,6.17609797 Z M81.2571527,8.42483108 C81.3311528,8.95798408 81.4765079,9.35652317 81.6932223,9.6204603 C82.0896512,10.1008259 82.7688559,10.3410051 83.7308567,10.3410051 C84.3070001,10.3410051 84.7747792,10.2776611 85.1342081,10.1509713 C85.8160658,9.90814912 86.1569896,9.4568234 86.1569896,8.79698057 C86.1569896,8.41163236 85.9878491,8.11338788 85.6495631,7.90223818 C85.3112771,7.69636721 84.7800703,7.51425333 84.0559268,7.35589105 L82.8190748,7.07875845 C81.6033595,6.80426383 80.7629428,6.50601935 80.2977995,6.18401605 C79.5102274,5.6455843 79.1164473,4.80363748 79.1164473,3.65815034 C79.1164473,2.6129593 79.4970133,1.74461917 80.2581568,1.05310389 C81.0193004,0.361588603 82.1372131,0.0158361486 83.6119287,0.0158361486 C84.8435012,0.0158361486 85.894022,0.341793615 86.7635228,0.993718328 C87.6330235,1.64564304 88.0889099,2.59184346 88.1311957,3.83234797 L85.7843482,3.83234797 C85.7420625,3.13027521 85.4354954,2.63144151 84.8646378,2.33583193 C84.484066,2.14051845 84.0110013,2.04286318 83.4454294,2.04286318 C82.8164288,2.04286318 82.3142931,2.1695511 81.939007,2.42293074 C81.563721,2.67631039 81.3760808,3.02998084 81.3760808,3.4839527 C81.3760808,3.90097337 81.5610782,4.21241451 81.9310785,4.41828547 C82.1689358,4.55553278 82.6763572,4.71653202 83.4533579,4.90128801 L85.4672067,5.38429054 C86.3499217,5.59544024 87.0159123,5.87784874 87.4651984,6.23152449 C88.1629133,6.78051372 88.5117655,7.57495257 88.5117655,8.61486486 C88.5117655,9.68117087 88.1034499,10.5666667 87.2868063,11.2713788 C86.4701628,11.9760909 85.3165719,12.3284417 83.8259992,12.3284417 C82.3037122,12.3284417 81.1065148,11.9813696 80.2343712,11.2872149 C79.3622276,10.5930603 78.9261624,9.63894188 78.9261624,8.42483108 L81.2571527,8.42483108 Z M92.1493791,12.0275549 L89.7232463,12.0275549 L89.7232463,0.356313345 L92.1493791,0.356313345 L92.1493791,12.0275549 Z M97.2141296,7.6171875 L100.179403,7.6171875 L98.720552,3.02470439 L97.2141296,7.6171875 Z M97.3647719,0.356313345 L100.123903,0.356313345 L104.2626,12.0275549 L101.614469,12.0275549 L100.861257,9.62837838 L96.5560609,9.62837838 L95.74735,12.0275549 L93.1943606,12.0275549 L97.3647719,0.356313345 Z" id="ROSIA" fill="#DD2487"></path>
                <path d="M10.2233251,45 C13.3333333,45 15.7402812,44.2559486 17.4441687,42.7678457 C19.1480562,41.2797428 20,39.4098607 20,37.1581994 C20,34.9622722 19.2721257,33.2846731 17.8163772,32.1254019 C16.8789633,31.3785638 15.4893852,30.7822079 13.6476427,30.3363344 L13.6476427,30.3363344 L9.44582299,29.3163987 C7.82464847,28.9262594 6.76592225,28.5862808 6.26964433,28.296463 C5.49765647,27.8617363 5.11166253,27.2040729 5.11166253,26.3234727 C5.11166253,25.3648446 5.50317066,24.6180064 6.28618693,24.0829582 C7.0692032,23.54791 8.11690102,23.2803859 9.4292804,23.2803859 C10.609319,23.2803859 11.5963606,23.4866024 12.3904053,23.8990354 C13.5814723,24.5232583 14.2211194,25.5766345 14.3093466,27.059164 L14.3093466,27.059164 L19.2059553,27.059164 C19.1177281,24.439657 18.1665288,22.4415863 16.3523573,21.0649518 C14.5381858,19.6883173 12.3462917,19 9.77667494,19 C6.69975186,19 4.36724566,19.7301179 2.77915633,21.1903537 C1.191067,22.6505895 0.397022333,24.4842444 0.397022333,26.6913183 C0.397022333,29.1101822 1.21863799,30.8881029 2.86186931,32.0250804 C3.83236835,32.7050375 5.58588365,33.3348339 8.12241522,33.9144695 L8.12241522,33.9144695 L10.7030604,34.4996785 C12.2139509,34.8340836 13.3223049,35.2186495 14.0281224,35.6533762 C14.7339399,36.0992497 15.0868486,36.7290461 15.0868486,37.5427653 C15.0868486,38.93612 14.375517,39.8891747 12.9528536,40.4019293 C12.2029225,40.6694534 11.2269093,40.8032154 10.0248139,40.8032154 C8.01764544,40.8032154 6.60049628,40.2960343 5.77336642,39.281672 C5.3212021,38.7243301 5.01792115,37.8827438 4.86352357,36.7569132 L4.86352357,36.7569132 L0,36.7569132 C0,39.320686 0.909842845,41.335477 2.72952854,42.8012862 C4.54921423,44.2670954 7.0471464,45 10.2233251,45 Z M29.0650407,44 C29.9756098,44 30.7696477,43.8815081 31.4471545,43.6445242 C32.1246612,43.4075404 32.8265583,42.9658887 33.5528455,42.3195691 C33.7913279,42.1149013 33.99729,41.8779174 34.1707317,41.6086176 C34.3441734,41.3393178 34.4525745,41.1777379 34.495935,41.1238779 L34.495935,41.1238779 L34.495935,43.6122083 L39,43.6122083 L39,26 L34.300813,26 L34.300813,35.5816876 C34.300813,36.7127469 34.1490515,37.6229803 33.8455285,38.3123878 C33.2601626,39.5834829 32.1761518,40.2190305 30.5934959,40.2190305 C29.3577236,40.2190305 28.5284553,39.7719928 28.1056911,38.8779174 C27.8672087,38.3716338 27.7479675,37.6175943 27.7479675,36.6157989 L27.7479675,36.6157989 L27.7479675,26 L23,26 L23,36.6157989 C23,38.6301616 23.2547425,40.1543986 23.7642276,41.1885099 C24.6747967,43.0628366 26.4417344,44 29.0650407,44 Z M47.5527066,51 L47.5527066,41.7971484 C48.037037,42.5424498 48.5321304,43.1095269 49.0379867,43.4983798 C49.9635961,44.2004753 51.1259892,44.551523 52.5251662,44.551523 C54.7207977,44.551523 56.5155112,43.7360121 57.9093067,42.1049903 C59.3031022,40.4739685 60,38.103046 60,34.9922229 C60,32.0434219 59.2869579,29.8075178 57.8608737,28.2845107 C56.4347895,26.7615036 54.6938905,26 52.6381766,26 C51.2282368,26 50.0120291,26.3942536 48.9895537,27.1827609 C48.4298829,27.6256211 47.9025008,28.2305033 47.4074074,28.9974076 L47.4074074,28.9974076 L47.4074074,26.3888529 L43,26.3888529 L43,51 L47.5527066,51 Z M50.9917864,41 C50.0937714,41 49.3162218,40.7488584 48.6591376,40.2465753 C47.5530459,39.3871131 47,37.8970066 47,35.7762557 C47,34.4368341 47.164271,33.3318113 47.4928131,32.4611872 C48.1279945,30.8203957 49.294319,30 50.9917864,30 C52.4045175,30 53.4257358,30.5413496 54.0554415,31.6240487 C54.6851472,32.7067478 55,33.9512938 55,35.3576865 C55,37.065449 54.6577687,38.4327752 53.973306,39.4596651 C53.2888433,40.486555 52.2950034,41 50.9917864,41 Z M69.6537631,45 C72.4177027,45 74.5674334,44.1281385 76.1029554,42.3844156 C77.0900767,41.2877345 77.6439614,40.2075036 77.7646095,39.1437229 L77.7646095,39.1437229 L72.9770714,39.1437229 C72.7248071,39.6701299 72.4341547,40.0813853 72.1051143,40.3774892 C71.5018735,40.9258297 70.7176605,41.2 69.7524752,41.2 C68.8421301,41.2 68.0634011,40.9751804 67.4162882,40.5255411 C66.3523909,39.8017316 65.7875382,38.5405483 65.7217301,36.7419913 L65.7217301,36.7419913 L77.9949378,36.7419913 C78.0168739,35.195671 77.9675178,34.0112554 77.8468696,33.1887446 C77.6384774,31.7849928 77.1833048,30.5512266 76.4813519,29.4874459 C75.7026229,28.2810967 74.7155016,27.3982684 73.5199881,26.838961 C72.3244746,26.2796537 70.9808928,26 69.4892429,26 C66.9775677,26 64.9347751,26.8279942 63.360865,28.4839827 C61.786955,30.1399711 61,32.5197691 61,35.6233766 C61,38.9353535 61.8719571,41.3261183 63.6158714,42.795671 C65.3597856,44.2652237 67.3724162,45 69.6537631,45 Z M73,33 L66,33 C66.1474793,31.7710145 66.5082769,30.7971014 67.0823928,30.0782609 C67.6565087,29.3594203 68.4650113,29 69.5079007,29 C70.4665162,29 71.2697517,29.3391304 71.9176072,30.0173913 C72.5654628,30.6956522 72.9262603,31.6898551 73,33 L73,33 Z M85.5339652,44 L85.5339652,35.5967742 C85.5339652,34.188172 85.7077409,33.1451613 86.0552923,32.4677419 C86.6766719,31.2634409 87.8931016,30.6612903 89.7045814,30.6612903 C89.8414955,30.6612903 90.0205371,30.6666667 90.2417062,30.6774194 C90.4628752,30.688172 90.7156398,30.7096774 91,30.7419355 L91,30.7419355 L91,26.0322581 C90.7998947,26.0215054 90.6708794,26.0134409 90.6129542,26.0080645 C90.555029,26.0026882 90.4839389,26 90.399684,26 C89.0516061,26 87.9562928,26.3602151 87.1137441,27.0806452 C86.597683,27.5107527 85.9921011,28.311828 85.2969984,29.483871 L85.2969984,29.483871 L85.2969984,26.4193548 L81,26.4193548 L81,44 L85.5339652,44 Z M103.480184,44 L110,26 L104.923502,26 L101.074654,39.2770642 L97.3087558,26 L92,26 L98.4866359,44 L103.480184,44 Z M117,24 L117,20 L112,20 L112,24 L117,24 Z M117,44 L117,26 L112,26 L112,44 L117,44 Z M128.072362,45 C130.773869,45 132.770519,44.439407 134.062312,43.3182211 C135.354104,42.1970351 136,40.7504318 136,38.9784111 C136,37.6329879 135.549749,36.511802 134.649246,35.6148532 C133.738023,34.7288428 132.371189,34.0670697 130.548744,33.6295337 C127.815075,33.0169833 126.223116,32.5849165 125.772864,32.3333333 C125.322613,32.0926885 125.097487,31.7043754 125.097487,31.1683938 C125.097487,30.7417962 125.309213,30.3698906 125.732663,30.052677 C126.156114,29.7354634 126.866332,29.5768566 127.863317,29.5768566 C129.074707,29.5768566 129.932328,29.8940702 130.436181,30.5284974 C130.704188,30.8785262 130.870352,31.3543466 130.934673,31.9559585 L130.934673,31.9559585 L135.517588,31.9559585 C135.313903,29.7682786 134.523283,28.2286989 133.145729,27.3372193 C131.768174,26.4457398 129.98593,26 127.798995,26 C125.494137,26 123.706533,26.5934082 122.436181,27.7802245 C121.165829,28.9670409 120.530653,30.3862982 120.530653,32.0379965 C120.530653,33.4381117 120.938023,34.5100748 121.752764,35.253886 C122.567504,36.0086356 123.966499,36.6375936 125.949749,37.1407599 C128.704858,37.8080023 130.296817,38.2783535 130.725628,38.5518135 C131.154439,38.8252735 131.368844,39.224525 131.368844,39.7495682 C131.368844,40.2964882 131.103518,40.7066782 130.572864,40.9801382 C130.042211,41.2535982 129.326633,41.3903282 128.426131,41.3903282 C126.893132,41.3903282 125.842546,41.0785838 125.274372,40.455095 C124.952764,40.1050662 124.743719,39.5143926 124.647236,38.6830743 L124.647236,38.6830743 L120,38.6830743 C120,40.5207254 120.656616,42.0329591 121.969849,43.2197755 C123.283082,44.4065918 125.317253,45 128.072362,45 Z M147,45 C150.02693,45 152.283662,44.0715105 153.770197,42.2145314 C155.256732,40.3575523 156,38.122098 156,35.5081685 C156,32.9378045 155.256732,30.7105188 153.770197,28.8263113 C152.283662,26.9421038 150.02693,26 147,26 C143.97307,26 141.716338,26.9421038 140.229803,28.8263113 C138.743268,30.7105188 138,32.9378045 138,35.5081685 C138,38.122098 138.743268,40.3575523 140.229803,42.2145314 C141.716338,44.0715105 143.97307,45 147,45 Z M146.508671,41 C145.063584,41 143.950867,40.522206 143.17052,39.5666179 C142.390173,38.6110298 142,37.2528062 142,35.4919473 C142,33.7310883 142.390173,32.375549 143.17052,31.4253294 C143.950867,30.4751098 145.063584,30 146.508671,30 C147.953757,30 149.063584,30.4751098 149.83815,31.4253294 C150.612717,32.375549 151,33.7310883 151,35.4919473 C151,37.2528062 150.612717,38.6110298 149.83815,39.5666179 C149.063584,40.522206 147.953757,41 146.508671,41 Z M163.533965,44 L163.533965,35.5967742 C163.533965,34.188172 163.707741,33.1451613 164.055292,32.4677419 C164.676672,31.2634409 165.893102,30.6612903 167.704581,30.6612903 C167.841496,30.6612903 168.020537,30.6666667 168.241706,30.6774194 C168.462875,30.688172 168.71564,30.7096774 169,30.7419355 L169,30.7419355 L169,26.0322581 C168.799895,26.0215054 168.670879,26.0134409 168.612954,26.0080645 C168.555029,26.0026882 168.483939,26 168.399684,26 C167.051606,26 165.956293,26.3602151 165.113744,27.0806452 C164.597683,27.5107527 163.992101,28.311828 163.296998,29.483871 L163.296998,29.483871 L163.296998,26.4193548 L159,26.4193548 L159,44 L163.533965,44 Z" id="Supervisor" fill="#2E384D"></path>
            </g>
        </g>
    </g>
</svg>