<?xml version="1.0" encoding="UTF-8"?>
<svg width="20px" height="22px" viewBox="0 0 20 22" version="1.1" xmlns="http://www.w3.org/2000/svg" xmlns:xlink="http://www.w3.org/1999/xlink">
    <title>FEAF0898-BF2C-46D7-919E-8150C27BB7A5</title>
    <g id="Page-1" stroke="none" stroke-width="1" fill="none" fill-rule="evenodd">
        <g id="Main-Dashboard" transform="translate(-315.000000, -37.000000)" fill="#BFC5D2" fill-rule="nonzero">
            <g id="Component/Navigation/Top-Bar" transform="translate(0.000000, 24.000000)">
                <g id="icon-notifications" transform="translate(315.000000, 13.000000)">
                    <path d="M18.826632,17.4648209 C16.5560663,16.4394233 16.4696942,12.0380793 16.4680185,11.9270245 L16.4680185,8.97424524 C16.4680185,6.13234622 14.7314304,3.68861749 12.2636823,2.64810303 C12.2583757,1.18700482 11.0683684,0 9.60618797,0 C8.14397258,0 6.95400024,1.18707465 6.94865872,2.64803321 C4.48101534,3.68854767 2.74439237,6.1322764 2.74439237,8.97417542 L2.74439237,11.9269547 C2.74278642,12.0380094 2.65634454,16.4393535 0.385709045,17.4647511 C0.127046729,17.5816013 -0.0151145544,17.8631658 0.0446895416,18.1406456 C0.104423814,18.4181604 0.349819605,18.6163553 0.633688318,18.6163553 L6.38996348,18.6163553 C6.50796573,19.2655073 6.81491121,19.8694134 7.28437162,20.3585641 C7.90789827,21.0082049 8.73248259,21.3659821 9.60608323,21.3659821 C10.4797537,21.3659821 11.304338,21.0082049 11.9277948,20.3585641 C12.3973251,19.8693785 12.7042706,19.2654374 12.822203,18.6163553 L18.5784781,18.6163553 C18.8623469,18.6163553 19.1077077,18.4181953 19.1675118,18.1406456 C19.2273858,17.8631658 19.0852943,17.5816362 18.826632,17.4648209 Z M15.8356242,15.3563163 C16.0743169,16.0799703 16.4122991,16.8066966 16.8915697,17.4114406 L2.32073638,17.4114406 C2.79993721,16.8067664 3.13791938,16.0800751 3.37661209,15.3563163 L15.8356242,15.3563163 Z M9.60618797,1.20498446 C10.267594,1.20498446 10.826813,1.64941303 11.0017914,2.25520443 C10.5510089,2.16171035 10.0842367,2.11241473 9.60618797,2.11241473 C9.12813923,2.11241473 8.66136704,2.16167543 8.2105845,2.25520443 C8.38559789,1.64944794 8.94481681,1.20498446 9.60618797,1.20498446 Z M3.94937683,11.9306553 L3.94937683,8.97414051 C3.94937683,5.85500603 6.48698367,3.31739919 9.60618797,3.31739919 C12.7253923,3.31739919 15.2629991,5.85500603 15.2629991,8.97414051 L15.2629991,11.9355779 C15.2638021,12.0262092 15.2779065,12.9787108 15.5179608,14.1512621 L3.69427552,14.1512621 C3.93446944,12.9775936 3.94864368,12.0234163 3.94937683,11.9306553 Z M9.60618797,20.1611024 C8.68657343,20.1611024 7.88398361,19.4980555 7.62636865,18.6163902 L11.5859375,18.6163902 C11.3283225,19.4980555 10.5258723,20.1611024 9.60618797,20.1611024 Z" id="Shape"></path>
                </g>
            </g>
        </g>
    </g>
</svg>