<?xml version="1.0" encoding="UTF-8"?>
<svg width="24px" height="24px" viewBox="0 0 24 24" version="1.1" xmlns="http://www.w3.org/2000/svg" xmlns:xlink="http://www.w3.org/1999/xlink">
    <title>7A4D5172-67A5-441A-BBD9-CA23669F07A3</title>
    <g id="Login" stroke="none" stroke-width="1" fill="none" fill-rule="evenodd">
        <g id="Sign-In" transform="translate(-205.000000, -571.000000)" fill="#59267C" fill-rule="nonzero">
            <g id="Button/Medium/With-Left-Icon-Copy-4" transform="translate(188.000000, 558.000000)">
                <g id="Viber" transform="translate(17.000000, 13.000000)">
                    <path d="M20.8125,2.3390625 C20.2171875,1.790625 17.8078125,0.0421875 12.4359375,0.01875 C12.4359375,0.01875 6.103125,-0.3609375 3.01875,2.4703125 C1.303125,4.1859375 0.6984375,6.703125 0.6328125,9.8203125 C0.5671875,12.9375 0.4875,18.778125 6.1171875,20.3625 L6.121875,20.3625 L6.1171875,22.78125 C6.1171875,22.78125 6.0796875,23.7609375 6.7265625,23.9578125 C7.5046875,24.2015625 7.9640625,23.45625 8.709375,22.6546875 C9.1171875,22.2140625 9.6796875,21.5671875 10.10625,21.075 C13.959375,21.3984375 16.9171875,20.6578125 17.2546875,20.55 C18.0328125,20.296875 22.434375,19.734375 23.146875,13.89375 C23.8875,7.865625 22.790625,4.059375 20.8125,2.3390625 Z M21.4640625,13.453125 C20.859375,18.328125 17.2921875,18.6375 16.6359375,18.8484375 C16.3546875,18.9375 13.753125,19.584375 10.4859375,19.3734375 C10.4859375,19.3734375 8.0484375,22.3125 7.2890625,23.0765625 C7.040625,23.325 6.76875,23.3015625 6.7734375,22.809375 C6.7734375,22.4859375 6.7921875,18.7921875 6.7921875,18.7921875 C6.7875,18.7921875 6.7875,18.7921875 6.7921875,18.7921875 C2.0203125,17.4703125 2.3015625,12.496875 2.353125,9.8953125 C2.4046875,7.29375 2.896875,5.1609375 4.35,3.7265625 C6.9609375,1.359375 12.3375,1.7109375 12.3375,1.7109375 C16.8796875,1.7296875 19.0546875,3.0984375 19.5609375,3.5578125 C21.234375,4.9921875 22.0875,8.4234375 21.4640625,13.453125 L21.4640625,13.453125 Z M14.9484375,9.665625 C14.9671875,10.06875 14.3625,10.096875 14.34375,9.69375 C14.2921875,8.6625 13.809375,8.1609375 12.815625,8.1046875 C12.4125,8.08125 12.45,7.4765625 12.8484375,7.5 C14.15625,7.5703125 14.8828125,8.3203125 14.9484375,9.665625 Z M15.9,10.1953125 C15.946875,8.2078125 14.7046875,6.6515625 12.346875,6.478125 C11.9484375,6.45 11.990625,5.8453125 12.3890625,5.8734375 C15.1078125,6.0703125 16.55625,7.940625 16.5046875,10.209375 C16.5,10.6125 15.890625,10.59375 15.9,10.1953125 L15.9,10.1953125 Z M18.1031519,10.8234375 C18.1078125,11.2265625 17.4984375,11.23125 17.4984375,10.828125 C17.4703125,7.0078125 14.925,4.9265625 11.8359375,4.903125 C11.4375,4.8984375 11.4375,4.2984375 11.8359375,4.2984375 C15.290625,4.321875 18.0703125,6.7078125 18.1031519,10.8234375 L18.1031519,10.8234375 Z M17.5734375,15.421875 L17.5734375,15.43125 C17.0671875,16.321875 16.1203125,17.30625 15.1453125,16.9921875 L15.1359375,16.978125 C14.146875,16.7015625 11.8171875,15.5015625 10.3453125,14.3296875 C9.5859375,13.7296875 8.8921875,13.021875 8.3578125,12.3421875 C7.875,11.7375 7.3875,11.0203125 6.9140625,10.1578125 C5.915625,8.353125 5.6953125,7.546875 5.6953125,7.546875 C5.38125,6.571875 6.3609375,5.625 7.25625,5.11875 L7.265625,5.11875 C7.696875,4.89375 8.109375,4.96875 8.3859375,5.3015625 C8.3859375,5.3015625 8.9671875,5.9953125 9.215625,6.3375 C9.45,6.65625 9.7640625,7.1671875 9.928125,7.453125 C10.2140625,7.9640625 10.0359375,8.484375 9.7546875,8.7 L9.1921875,9.15 C8.90625,9.3796875 8.94375,9.80625 8.94375,9.80625 C8.94375,9.80625 9.778125,12.9609375 12.8953125,13.7578125 C12.8953125,13.7578125 13.321875,13.7953125 13.5515625,13.509375 L14.0015625,12.946875 C14.2171875,12.665625 14.7375,12.4875 15.2484375,12.7734375 C15.9375,13.1625 16.8140625,13.7671875 17.3953125,14.315625 C17.7234375,14.5828125 17.7984375,14.990625 17.5734375,15.421875 Z" id="Shape"></path>
                </g>
            </g>
        </g>
    </g>
</svg>